<svg width="330" height="330" viewBox="0 0 330 330" fill="none" xmlns="http://www.w3.org/2000/svg">
<g filter="url(#filter0_d)">
<g filter="url(#filter1_d)">
<path d="M223.004 278.393C250.09 259.973 267.871 231.867 275 200.958C267.53 209.342 258.962 216.969 249.316 223.531C191.285 262.995 117.097 249.6 83.6107 193.611C60.2507 154.553 62.895 105.108 86.3083 65.3628C35.4764 105.069 21.7671 180.825 56.3109 238.584C92.2774 298.721 166.908 316.545 223.004 278.393Z" fill="#FFBC00"/>
</g>
<g opacity="0.5" clip-path="url(#clip0)">
<path d="M168.31 78.9935L187.893 75V80.4611L168.31 84.4547V78.9935Z" fill="#F9F9F9"/>
<path d="M171.463 78.9893H168.31V99.4037H171.463V78.9893Z" fill="#F9F9F9"/>
<path d="M171.36 98.5965C171.924 100.699 170.108 103.012 167.305 103.763C164.502 104.514 161.772 103.419 161.209 101.317C160.646 99.2141 162.462 96.9009 165.265 96.1498C168.068 95.3987 170.797 96.4941 171.36 98.5965V98.5965Z" fill="#F9F9F9"/>
<path d="M187.893 75.6545H184.741V96.0689H187.893V75.6545Z" fill="#F9F9F9"/>
<path d="M187.791 95.2617C188.354 97.364 186.538 99.6773 183.735 100.428C180.932 101.179 178.203 100.084 177.64 97.9817C177.076 95.8793 178.892 93.5661 181.695 92.8149C184.498 92.0638 187.228 93.1593 187.791 95.2617V95.2617Z" fill="#F9F9F9"/>
</g>
<g clip-path="url(#clip1)">
<path d="M213.328 36.8854L247.092 30V39.4157L213.328 46.3011V36.8854Z" fill="#F9F9F9"/>
<path d="M218.764 36.8781H213.328V72.0754H218.764V36.8781Z" fill="#F9F9F9"/>
<path d="M218.587 70.6837C219.558 74.3085 216.427 78.2968 211.594 79.5918C206.761 80.8868 202.056 78.9981 201.085 75.3733C200.113 71.7485 203.244 67.7602 208.077 66.4652C212.91 65.1702 217.616 67.0588 218.587 70.6837V70.6837Z" fill="#F9F9F9"/>
<path d="M247.092 31.1284H241.656V66.3256H247.092V31.1284Z" fill="#F9F9F9"/>
<path d="M246.915 64.9339C247.887 68.5587 244.756 72.547 239.923 73.842C235.09 75.1371 230.384 73.2484 229.413 69.6236C228.442 65.9988 231.573 62.0104 236.406 60.7154C241.239 59.4204 245.944 61.3091 246.915 64.9339V64.9339Z" fill="#F9F9F9"/>
</g>
<g filter="url(#filter2_d)">
<path d="M223.004 278.393C250.09 259.973 267.871 231.867 275 200.958C267.53 209.342 258.962 216.969 249.316 223.531C191.285 262.995 117.097 249.6 83.6107 193.611C60.2507 154.553 62.895 105.108 86.3083 65.3628C35.4764 105.069 21.7671 180.825 56.3109 238.584C92.2774 298.721 166.908 316.545 223.004 278.393Z" fill="#FFBC00"/>
</g>
<g clip-path="url(#clip2)">
<path d="M168.31 78.9935L187.893 75V80.4611L168.31 84.4547V78.9935Z" fill="#F9F9F9"/>
<path d="M171.463 78.9893H168.31V99.4037H171.463V78.9893Z" fill="#F9F9F9"/>
<path d="M171.36 98.5965C171.924 100.699 170.108 103.012 167.305 103.763C164.502 104.514 161.772 103.419 161.209 101.317C160.646 99.2141 162.462 96.9009 165.265 96.1498C168.068 95.3987 170.797 96.4941 171.36 98.5965V98.5965Z" fill="#F9F9F9"/>
<path d="M187.893 75.6545H184.741V96.0689H187.893V75.6545Z" fill="#F9F9F9"/>
<path d="M187.791 95.2617C188.354 97.364 186.538 99.6773 183.735 100.428C180.932 101.179 178.203 100.084 177.64 97.9817C177.076 95.8793 178.892 93.5661 181.695 92.8149C184.498 92.0638 187.228 93.1593 187.791 95.2617V95.2617Z" fill="#F9F9F9"/>
</g>
<path d="M134.156 175.108C143.89 175.108 151.781 166.799 151.781 156.549C151.781 146.3 143.89 137.991 134.156 137.991C124.422 137.991 116.531 146.3 116.531 156.549C116.531 166.799 124.422 175.108 134.156 175.108Z" fill="#F9F9F9"/>
<path d="M156.188 137.991V175.108H248.719V161.189C248.719 148.379 238.853 137.991 226.688 137.991H156.188Z" fill="#F9F9F9"/>
<path d="M113.011 209.937L113.182 206.796C115.165 201.785 119.88 198.306 125.344 198.306H231.094C238.408 198.306 244.312 204.523 244.312 212.225V224.626C250.358 221.741 256.249 218.386 261.938 214.577V179.747H112.125V128.711H94.5V189.031C99.8316 196.835 106.044 203.841 113.011 209.937Z" fill="#F9F9F9"/>
<path d="M151.781 124.072C154.215 124.072 156.188 121.995 156.188 119.432C156.188 116.87 154.215 114.793 151.781 114.793C149.348 114.793 147.375 116.87 147.375 119.432C147.375 121.995 149.348 124.072 151.781 124.072Z" fill="#F9F9F9"/>
</g>
<defs>
<filter id="filter0_d" x="24" y="22" width="290" height="379.17" filterUnits="userSpaceOnUse" color-interpolation-filters="sRGB">
<feFlood flood-opacity="0" result="BackgroundImageFix"/>
<feColorMatrix in="SourceAlpha" type="matrix" values="0 0 0 0 0 0 0 0 0 0 0 0 0 0 0 0 0 0 127 0"/>
<feOffset dx="4" dy="4"/>
<feGaussianBlur stdDeviation="2"/>
<feColorMatrix type="matrix" values="0 0 0 0 0 0 0 0 0 0 0 0 0 0 0 0 0 0 0.1 0"/>
<feBlend mode="normal" in2="BackgroundImageFix" result="effect1_dropShadow"/>
<feBlend mode="normal" in="SourceGraphic" in2="effect1_dropShadow" result="shape"/>
</filter>
<filter id="filter1_d" x="33.2188" y="65.3628" width="245.781" height="241.111" filterUnits="userSpaceOnUse" color-interpolation-filters="sRGB">
<feFlood flood-opacity="0" result="BackgroundImageFix"/>
<feColorMatrix in="SourceAlpha" type="matrix" values="0 0 0 0 0 0 0 0 0 0 0 0 0 0 0 0 0 0 127 0"/>
<feOffset dy="4"/>
<feGaussianBlur stdDeviation="2"/>
<feColorMatrix type="matrix" values="0 0 0 0 0 0 0 0 0 0 0 0 0 0 0 0 0 0 0.25 0"/>
<feBlend mode="normal" in2="BackgroundImageFix" result="effect1_dropShadow"/>
<feBlend mode="normal" in="SourceGraphic" in2="effect1_dropShadow" result="shape"/>
</filter>
<filter id="filter2_d" x="33.2188" y="65.3628" width="245.781" height="241.111" filterUnits="userSpaceOnUse" color-interpolation-filters="sRGB">
<feFlood flood-opacity="0" result="BackgroundImageFix"/>
<feColorMatrix in="SourceAlpha" type="matrix" values="0 0 0 0 0 0 0 0 0 0 0 0 0 0 0 0 0 0 127 0"/>
<feOffset dy="4"/>
<feGaussianBlur stdDeviation="2"/>
<feColorMatrix type="matrix" values="0 0 0 0 0 0 0 0 0 0 0 0 0 0 0 0 0 0 0.25 0"/>
<feBlend mode="normal" in2="BackgroundImageFix" result="effect1_dropShadow"/>
<feBlend mode="normal" in="SourceGraphic" in2="effect1_dropShadow" result="shape"/>
</filter>
<clipPath id="clip0">
<rect width="29" height="29" fill="white" transform="translate(160 75)"/>
</clipPath>
<clipPath id="clip1">
<rect width="50" height="50" fill="white" transform="translate(199 30)"/>
</clipPath>
<clipPath id="clip2">
<rect width="29" height="29" fill="white" transform="translate(160 75)"/>
</clipPath>
</defs>
</svg>
